# xmcd
#
# Track frame offsets: 
#        150
#        19820
#        38285
#        60208
#        77433
#        101276
#        123281
#        144587
#        165789
#        184526
#        207115
#
# Disc length: 3041 seconds
#
# Revision: 0
# Processed by: cddbd v1.5.2PL0 Copyright (c) Steve Scherf et al.
# Submitted via: ExactAudioCopy v1.3
#
DISCID=6f0bdf0b
DTITLE=Brandon Santini - The Longshot
DYEAR=2019
DGENRE=Blues Rock
TTITLE0=Don't Come Around Here
TTITLE1=Beggin' Baby
TTITLE2=One More Day
TTITLE3=Drive You Off My Mind
TTITLE4=Heartbreaker
TTITLE5=Broken Bones
TTITLE6=Back To You
TTITLE7=My Worried Mind
TTITLE8=Going Home
TTITLE9=Evil (Is Going On)
TTITLE10=Somebody's Gotta Go
EXTD=
EXTT0=
EXTT1=
EXTT2=
EXTT3=
EXTT4=
EXTT5=
EXTT6=
EXTT7=
EXTT8=
EXTT9=
EXTT10=
PLAYORDER=
